<?xml version="1.0" standalone="no"?>
<!DOCTYPE svg PUBLIC "-//W3C//DTD SVG 20010904//EN"
 "http://www.w3.org/TR/2001/REC-SVG-20010904/DTD/svg10.dtd">
<svg version="1.0" xmlns="http://www.w3.org/2000/svg"
 width="261.000000pt" height="180.000000pt" viewBox="0 0 261.000000 180.000000"
 preserveAspectRatio="xMidYMid meet">

<g transform="translate(0.000000,180.000000) scale(0.100000,-0.100000)"
fill="#000000" stroke="none">
<path d="M852 1276 c-78 -30 -127 -63 -191 -130 -66 -71 -98 -137 -115 -243
-21 -133 -80 -749 -73 -767 8 -20 70 -22 85 -3 6 7 16 60 21 118 6 57 20 190
31 294 11 105 25 231 30 280 18 168 59 250 157 313 125 80 250 83 348 7 67
-50 76 -73 215 -515 64 -203 79 -225 154 -234 39 -4 67 -2 90 8 77 32 85 68
145 681 10 105 15 194 11 198 -4 5 -25 7 -46 5 -48 -4 -43 23 -90 -433 -20
-198 -41 -366 -47 -372 -30 -38 -58 -2 -97 127 -139 455 -175 546 -237 601
-68 59 -129 82 -233 86 -82 3 -104 0 -158 -21z"/>
<path d="M1947 1273 c-4 -4 -4 -21 -1 -40 4 -20 0 -48 -10 -73 -9 -22 -22
-114 -31 -212 -33 -357 -51 -471 -84 -541 -40 -84 -121 -160 -193 -182 -99
-29 -209 -14 -268 37 -41 36 -91 106 -104 147 -133 426 -180 557 -212 589 -39
39 -77 42 -141 11 -59 -28 -79 -70 -87 -184 -4 -49 -13 -124 -21 -165 -7 -41
-16 -124 -20 -185 -3 -60 -11 -142 -17 -180 -6 -39 -8 -82 -5 -96 7 -29 54
-56 70 -40 10 10 34 211 61 511 21 232 22 237 52 257 23 14 27 15 41 1 8 -9
27 -60 43 -115 15 -54 41 -137 57 -184 17 -46 47 -137 68 -202 21 -66 52 -140
69 -165 39 -60 116 -112 163 -112 19 0 50 -7 69 -16 26 -12 53 -15 108 -12
135 9 263 91 331 212 53 95 65 139 80 296 18 185 31 310 50 484 17 152 14 166
-35 166 -14 0 -30 -3 -33 -7z"/>
</g>
</svg>
